<svg width="18px" height="18px" viewBox="0 0 18 18" version="1.1">
    <g id="Page-1" stroke="none" stroke-width="1" fill="none" fill-rule="evenodd" sketch:type="MSPage">
        <path d="M2.25,13.5 C1.00735931,13.5 4.4408921e-16,14.5073593 4.4408921e-16,15.75 C4.4408921e-16,16.9926407 1.00735931,18 2.25,18 C3.49264069,18 4.5,16.9926407 4.5,15.75 C4.5,14.5073593 3.49264069,13.5 2.25,13.5 L2.25,13.5 L2.25,13.5 Z M0,6 L0,9 C4.97056275,9 9,13.0294373 9,18 L12,18 C12,11.372583 6.627417,6 1.19904087e-15,6 L0,6 L0,6 Z M0,0 L0,3 C8.28427125,3 15,9.71572875 15,18 L18,18 C18,8.0588745 9.9411255,0 2.39808173e-15,0 L0,0 L0,0 Z" id="icon-rss" fill="#000000" sketch:type="MSShapeGroup"></path>
    </g>
</svg>
