<svg width="24px" height="24px" viewBox="0 0 24 24">
    <g id="Page-1" stroke="none" stroke-width="1" fill="none" fill-rule="evenodd" sketch:type="MSPage">
        <g id="slack" sketch:type="MSLayerGroup">
            <path id="slack-top" d="M2.10762162,12.6987755 C1.2167027,12.7056327 0.462,12.171102 0.18372973,11.3368163 C0.173027027,11.3044898 0.163783784,11.2731429 0.154864865,11.2416327 C-0.148378378,10.1732245 0.439621622,9.0555102 1.49351351,8.69763265 L18.3972973,2.99591837 C18.6027568,2.93665306 18.8096757,2.90644898 19.0146486,2.90514286 C19.9292432,2.89795918 20.7047027,3.4442449 20.9897838,4.29616327 L21.0150811,4.37844898 C21.3312973,5.49126531 20.5456216,6.48457143 19.6042703,6.80293878 C19.6036216,6.80342857 19.4323784,6.86171429 2.79421622,12.5810612 C2.5692973,12.6579592 2.33854054,12.6968163 2.10762162,12.6987755 L2.10762162,12.6987755 L2.10762162,12.6987755 Z" fill="#70CADB"></path>
            <path id="slack-bottom" d="M4.92518919,21.0685714 C4.0272973,21.075102 3.27,20.5480816 2.99497297,19.7257143 C2.98459459,19.6943673 2.9747027,19.6628571 2.96578378,19.6311837 C2.65832432,18.5500408 3.24567568,17.4205714 4.30313514,17.0622041 L21.2075676,11.3082449 C21.426,11.2347755 21.6515676,11.1972245 21.8784324,11.195102 C22.7787568,11.1882449 23.5697838,11.7420408 23.8488649,12.5737143 L23.8748108,12.6602449 C24.0381081,13.235102 23.9416216,13.8811429 23.616973,14.3910204 C23.375027,14.7701224 22.6118919,15.1038367 22.6118919,15.1038367 L5.64324324,20.9453061 C5.40681081,21.0248163 5.16567568,21.0667755 4.92518919,21.068898 L4.92518919,21.0685714 L4.92518919,21.0685714 Z" fill="#E01765"></path>
            <path id="slack-right" d="M18.996973,21.1049796 C18.0953514,21.112 17.297027,20.5392653 17.0096757,19.6808163 L11.3680541,2.80897959 L11.3398378,2.71428571 C11.0341622,1.63836735 11.622,0.516081633 12.6755676,0.158530612 C12.8863784,0.0871836735 13.1043243,0.0499591837 13.3237297,0.048 C13.6496757,0.0455510204 13.9650811,0.119510204 14.2621622,0.267265306 C14.7588649,0.516244898 15.1303784,0.944816327 15.3079459,1.47412245 L20.9490811,18.3444898 L20.9654595,18.3986939 C21.2823243,19.5157551 20.6957838,20.6386939 19.6422162,20.9962449 C19.4335135,21.0662857 19.2162162,21.1030204 18.996973,21.1049796 L18.996973,21.1049796 L18.996973,21.1049796 Z" fill="#E8A723"></path>
            <path id="slack-left" d="M10.6110811,23.9467755 C9.70945946,23.9537959 8.91048649,23.3810612 8.62297297,22.5214694 L2.98281081,5.65028571 C2.97308108,5.61926531 2.96335135,5.5882449 2.95394595,5.55640816 C2.64908108,4.48081633 3.23513514,3.35836735 4.28837838,3.0004898 C4.49837838,2.93028571 4.71551351,2.89322449 4.93459459,2.89142857 C5.83637838,2.8842449 6.63486486,3.45681633 6.92221622,4.31559184 L12.5625405,21.1874286 C12.5730811,21.2168163 12.5826486,21.2493061 12.5912432,21.2803265 C12.8967568,22.3567347 12.3103784,23.4798367 11.2555135,23.8377143 C11.046,23.9080816 10.8291892,23.9448163 10.6104324,23.9466122 L10.6110811,23.9466122 L10.6110811,23.9467755 Z" fill="#3EB890"></path>
            <path id="slack-bottom-right" d="M16.2157297,17.3054694 L20.1494595,15.9513469 L18.8635135,12.106449 L14.9252432,13.4463673 L16.2157297,17.3054694 L16.2157297,17.3054694 Z" fill="#CC2027"></path>
            <path id="slack-bottom-left" d="M7.84281081,20.1877551 L11.7762162,18.8337959 L10.4805405,14.9595102 L6.54324324,16.2999184 L7.84281081,20.1877551 L7.84281081,20.1877551 Z" fill="#361238"></path>
            <path id="slack-top-right" d="M13.4151892,8.93061224 L17.3492432,7.57828571 L16.0783784,3.77828571 L12.137027,5.1077551 L13.4151892,8.93061224 L13.4151892,8.93061224 Z" fill="#65863A"></path>
            <path id="slack-top-left" d="M5.0412973,11.8089796 L8.97535135,10.4566531 L7.68891892,6.60816327 L3.74756757,7.93746939 L5.0412973,11.8089796 L5.0412973,11.8089796 Z" fill="#1A937D"></path>
        </g>
    </g>
</svg>
